<svg xmlns="http://www.w3.org/2000/svg" width="86" height="115" fill="none" viewBox="0 0 86 115">
  <g opacity=".3">
    <mask id="a" width="11" height="11" x="0" y="0" maskUnits="userSpaceOnUse">
      <path fill="url(#paint0_linear)" d="M5.228 10.425c2.888 0 5.229-2.334 5.229-5.213C10.457 2.334 8.116 0 5.228 0 2.341 0 0 2.334 0 5.212c0 2.88 2.34 5.213 5.228 5.213z"/>
    </mask>
    <g mask="url(#a)">
      <path fill="url(#paint1_linear)" d="M5.228 10.425c2.888 0 5.229-2.334 5.229-5.213C10.457 2.334 8.116 0 5.228 0 2.341 0 0 2.334 0 5.212c0 2.88 2.34 5.213 5.228 5.213z"/>
    </g>
    <mask id="b" width="11" height="11" x="30" y="0" maskUnits="userSpaceOnUse">
      <path fill="url(#paint2_linear)" d="M35.51 10.425c2.887 0 5.228-2.334 5.228-5.213C40.738 2.334 38.397 0 35.51 0c-2.888 0-5.229 2.334-5.229 5.212 0 2.88 2.34 5.213 5.229 5.213z"/>
    </mask>
    <g mask="url(#b)">
      <path fill="url(#paint3_linear)" d="M35.51 10.425c2.887 0 5.228-2.334 5.228-5.213C40.738 2.334 38.397 0 35.51 0c-2.888 0-5.229 2.334-5.229 5.212 0 2.88 2.34 5.213 5.229 5.213z"/>
    </g>
    <mask id="c" width="12" height="11" x="60" y="0" maskUnits="userSpaceOnUse">
      <path fill="url(#paint4_linear)" d="M65.79 10.425c2.888 0 5.229-2.334 5.229-5.213C71.019 2.334 68.679 0 65.79 0c-2.887 0-5.228 2.334-5.228 5.212 0 2.88 2.341 5.213 5.228 5.213z"/>
    </mask>
    <g mask="url(#c)">
      <path fill="url(#paint5_linear)" d="M65.79 10.425c2.888 0 5.229-2.334 5.229-5.213C71.019 2.334 68.679 0 65.79 0c-2.887 0-5.228 2.334-5.228 5.212 0 2.88 2.341 5.213 5.228 5.213z"/>
    </g>
    <mask id="d" width="11" height="11" x="0" y="26" maskUnits="userSpaceOnUse">
      <path fill="url(#paint6_linear)" d="M5.228 36.596c2.888 0 5.229-2.334 5.229-5.213 0-2.878-2.341-5.212-5.229-5.212C2.341 26.17 0 28.505 0 31.383c0 2.88 2.34 5.213 5.228 5.213z"/>
    </mask>
    <g mask="url(#d)">
      <path fill="url(#paint7_linear)" d="M5.228 36.596c2.888 0 5.229-2.334 5.229-5.213 0-2.878-2.341-5.212-5.229-5.212C2.341 26.17 0 28.505 0 31.383c0 2.88 2.34 5.213 5.228 5.213z"/>
    </g>
    <mask id="e" width="11" height="11" x="30" y="26" maskUnits="userSpaceOnUse">
      <path fill="url(#paint8_linear)" d="M35.51 36.596c2.887 0 5.228-2.334 5.228-5.213 0-2.878-2.341-5.212-5.228-5.212-2.888 0-5.229 2.334-5.229 5.212 0 2.88 2.34 5.213 5.229 5.213z"/>
    </mask>
    <g mask="url(#e)">
      <path fill="url(#paint9_linear)" d="M35.51 36.596c2.887 0 5.228-2.334 5.228-5.213 0-2.878-2.341-5.212-5.228-5.212-2.888 0-5.229 2.334-5.229 5.212 0 2.88 2.34 5.213 5.229 5.213z"/>
    </g>
    <mask id="f" width="12" height="11" x="60" y="26" maskUnits="userSpaceOnUse">
      <path fill="url(#paint10_linear)" d="M65.79 36.596c2.888 0 5.229-2.334 5.229-5.213 0-2.878-2.34-5.212-5.229-5.212-2.887 0-5.228 2.334-5.228 5.212 0 2.88 2.341 5.213 5.228 5.213z"/>
    </mask>
    <g mask="url(#f)">
      <path fill="url(#paint11_linear)" d="M65.79 36.596c2.888 0 5.229-2.334 5.229-5.213 0-2.878-2.34-5.212-5.229-5.212-2.887 0-5.228 2.334-5.228 5.212 0 2.88 2.341 5.213 5.228 5.213z"/>
    </g>
    <mask id="g" width="11" height="11" x="0" y="52" maskUnits="userSpaceOnUse">
      <path fill="url(#paint12_linear)" d="M5.228 62.713c2.888 0 5.229-2.334 5.229-5.213s-2.341-5.212-5.229-5.212C2.341 52.288 0 54.62 0 57.5c0 2.879 2.34 5.213 5.228 5.213z"/>
    </mask>
    <g mask="url(#g)">
      <path fill="url(#paint13_linear)" d="M5.228 62.713c2.888 0 5.229-2.334 5.229-5.213s-2.341-5.212-5.229-5.212C2.341 52.288 0 54.62 0 57.5c0 2.879 2.34 5.213 5.228 5.213z"/>
    </g>
    <mask id="h" width="11" height="11" x="30" y="52" maskUnits="userSpaceOnUse">
      <path fill="url(#paint14_linear)" d="M35.51 62.713c2.887 0 5.228-2.334 5.228-5.213s-2.341-5.212-5.228-5.212c-2.888 0-5.229 2.333-5.229 5.212 0 2.879 2.34 5.213 5.229 5.213z"/>
    </mask>
    <g mask="url(#h)">
      <path fill="url(#paint15_linear)" d="M35.51 62.713c2.887 0 5.228-2.334 5.228-5.213s-2.341-5.212-5.228-5.212c-2.888 0-5.229 2.333-5.229 5.212 0 2.879 2.34 5.213 5.229 5.213z"/>
    </g>
    <g>
      <mask id="i" width="12" height="11" x="60" y="52" maskUnits="userSpaceOnUse">
        <path fill="url(#paint16_linear)" d="M65.79 62.713c2.888 0 5.229-2.334 5.229-5.213s-2.34-5.212-5.229-5.212c-2.887 0-5.228 2.333-5.228 5.212 0 2.879 2.341 5.213 5.228 5.213z"/>
      </mask>
      <g mask="url(#i)">
        <path fill="url(#paint17_linear)" d="M65.79 62.713c2.888 0 5.229-2.334 5.229-5.213s-2.34-5.212-5.229-5.212c-2.887 0-5.228 2.333-5.228 5.212 0 2.879 2.341 5.213 5.228 5.213z"/>
      </g>
    </g>
    <g>
      <mask id="j" width="11" height="11" x="0" y="78" maskUnits="userSpaceOnUse">
        <path fill="url(#paint18_linear)" d="M5.228 88.883c2.888 0 5.229-2.333 5.229-5.212 0-2.879-2.341-5.213-5.229-5.213C2.341 78.459 0 80.793 0 83.671s2.34 5.212 5.228 5.212z"/>
      </mask>
      <g mask="url(#j)">
        <path fill="url(#paint19_linear)" d="M5.228 88.883c2.888 0 5.229-2.333 5.229-5.212 0-2.879-2.341-5.213-5.229-5.213C2.341 78.459 0 80.793 0 83.671s2.34 5.212 5.228 5.212z"/>
      </g>
    </g>
    <g>
      <mask id="k" width="11" height="11" x="30" y="78" maskUnits="userSpaceOnUse">
        <path fill="url(#paint20_linear)" d="M35.51 88.883c2.887 0 5.228-2.333 5.228-5.212 0-2.879-2.341-5.213-5.228-5.213-2.888 0-5.229 2.334-5.229 5.213s2.34 5.212 5.229 5.212z"/>
      </mask>
      <g mask="url(#k)">
        <path fill="url(#paint21_linear)" d="M35.51 88.883c2.887 0 5.228-2.333 5.228-5.212 0-2.879-2.341-5.213-5.228-5.213-2.888 0-5.229 2.334-5.229 5.213s2.34 5.212 5.229 5.212z"/>
      </g>
    </g>
    <g>
      <mask id="l" width="12" height="11" x="60" y="78" maskUnits="userSpaceOnUse">
        <path fill="url(#paint22_linear)" d="M65.79 88.883c2.888 0 5.229-2.333 5.229-5.212 0-2.879-2.34-5.213-5.229-5.213-2.887 0-5.228 2.334-5.228 5.213s2.341 5.212 5.228 5.212z"/>
      </mask>
      <g mask="url(#l)">
        <path fill="url(#paint23_linear)" d="M65.79 88.883c2.888 0 5.229-2.333 5.229-5.212 0-2.879-2.34-5.213-5.229-5.213-2.887 0-5.228 2.334-5.228 5.213s2.341 5.212 5.228 5.212z"/>
      </g>
    </g>
    <g>
      <mask id="m" width="11" height="11" x="0" y="104" maskUnits="userSpaceOnUse">
        <path fill="url(#paint24_linear)" d="M5.228 115c2.888 0 5.229-2.334 5.229-5.213 0-2.878-2.341-5.212-5.229-5.212-2.887 0-5.228 2.334-5.228 5.212C0 112.666 2.34 115 5.228 115z"/>
      </mask>
      <g mask="url(#m)">
        <path fill="url(#paint25_linear)" d="M5.228 115c2.888 0 5.229-2.334 5.229-5.213 0-2.878-2.341-5.212-5.229-5.212-2.887 0-5.228 2.334-5.228 5.212C0 112.666 2.34 115 5.228 115z"/>
      </g>
    </g>
    <g>
      <mask id="n" width="11" height="11" x="30" y="104" maskUnits="userSpaceOnUse">
        <path fill="url(#paint26_linear)" d="M35.51 115c2.887 0 5.228-2.334 5.228-5.213 0-2.878-2.341-5.212-5.228-5.212-2.888 0-5.229 2.334-5.229 5.212 0 2.879 2.34 5.213 5.229 5.213z"/>
      </mask>
      <g mask="url(#n)">
        <path fill="url(#paint27_linear)" d="M35.51 115c2.887 0 5.228-2.334 5.228-5.213 0-2.878-2.341-5.212-5.228-5.212-2.888 0-5.229 2.334-5.229 5.212 0 2.879 2.34 5.213 5.229 5.213z"/>
      </g>
    </g>
    <g>
      <mask id="o" width="12" height="11" x="60" y="104" maskUnits="userSpaceOnUse">
        <path fill="url(#paint28_linear)" d="M65.79 115c2.888 0 5.229-2.334 5.229-5.213 0-2.878-2.34-5.212-5.229-5.212-2.887 0-5.228 2.334-5.228 5.212 0 2.879 2.341 5.213 5.228 5.213z"/>
      </mask>
      <g mask="url(#o)">
        <path fill="url(#paint29_linear)" d="M65.79 115c2.888 0 5.229-2.334 5.229-5.213 0-2.878-2.34-5.212-5.229-5.212-2.887 0-5.228 2.334-5.228 5.212 0 2.879 2.341 5.213 5.228 5.213z"/>
      </g>
    </g>
  </g>
  <defs>
    <linearGradient id="paint0_linear" x1="54.996" x2="-16.406" y1="131.134" y2="-50.67" gradientUnits="userSpaceOnUse">
      <stop/>
      <stop offset="1" stop-color="#fff"/>
    </linearGradient>
    <linearGradient id="paint1_linear" x1="54.996" x2="-16.406" y1="131.134" y2="-50.67" gradientUnits="userSpaceOnUse">
      <stop stop-color="#97C3F9"/>
      <stop offset="1" stop-color="#93C1F9"/>
    </linearGradient>
    <linearGradient id="paint2_linear" x1="81.201" x2="9.799" y1="120.843" y2="-60.961" gradientUnits="userSpaceOnUse">
      <stop/>
      <stop offset="1" stop-color="#fff"/>
    </linearGradient>
    <linearGradient id="paint3_linear" x1="81.201" x2="9.799" y1="120.843" y2="-60.961" gradientUnits="userSpaceOnUse">
      <stop stop-color="#97C3F9"/>
      <stop offset="1" stop-color="#93C1F9"/>
    </linearGradient>
    <linearGradient id="paint4_linear" x1="107.405" x2="36.003" y1="110.551" y2="-71.253" gradientUnits="userSpaceOnUse">
      <stop/>
      <stop offset="1" stop-color="#fff"/>
    </linearGradient>
    <linearGradient id="paint5_linear" x1="107.405" x2="36.003" y1="110.551" y2="-71.253" gradientUnits="userSpaceOnUse">
      <stop stop-color="#97C3F9"/>
      <stop offset="1" stop-color="#93C1F9"/>
    </linearGradient>
    <linearGradient id="paint6_linear" x1="46.054" x2="-25.347" y1="134.645" y2="-47.157" gradientUnits="userSpaceOnUse">
      <stop/>
      <stop offset="1" stop-color="#fff"/>
    </linearGradient>
    <linearGradient id="paint7_linear" x1="46.054" x2="-25.347" y1="134.645" y2="-47.157" gradientUnits="userSpaceOnUse">
      <stop stop-color="#97C3F9"/>
      <stop offset="1" stop-color="#93C1F9"/>
    </linearGradient>
    <linearGradient id="paint8_linear" x1="72.258" x2=".858" y1="124.354" y2="-57.449" gradientUnits="userSpaceOnUse">
      <stop/>
      <stop offset="1" stop-color="#fff"/>
    </linearGradient>
    <linearGradient id="paint9_linear" x1="72.258" x2=".858" y1="124.354" y2="-57.449" gradientUnits="userSpaceOnUse">
      <stop stop-color="#97C3F9"/>
      <stop offset="1" stop-color="#93C1F9"/>
    </linearGradient>
    <linearGradient id="paint10_linear" x1="98.462" x2="27.062" y1="114.062" y2="-67.74" gradientUnits="userSpaceOnUse">
      <stop/>
      <stop offset="1" stop-color="#fff"/>
    </linearGradient>
    <linearGradient id="paint11_linear" x1="98.462" x2="27.062" y1="114.062" y2="-67.74" gradientUnits="userSpaceOnUse">
      <stop stop-color="#97C3F9"/>
      <stop offset="1" stop-color="#93C1F9"/>
    </linearGradient>
    <linearGradient id="paint12_linear" x1="37.111" x2="-34.29" y1="138.158" y2="-43.646" gradientUnits="userSpaceOnUse">
      <stop/>
      <stop offset="1" stop-color="#fff"/>
    </linearGradient>
    <linearGradient id="paint13_linear" x1="37.111" x2="-34.29" y1="138.158" y2="-43.646" gradientUnits="userSpaceOnUse">
      <stop stop-color="#97C3F9"/>
      <stop offset="1" stop-color="#93C1F9"/>
    </linearGradient>
    <linearGradient id="paint14_linear" x1="63.316" x2="-8.086" y1="127.867" y2="-53.937" gradientUnits="userSpaceOnUse">
      <stop/>
      <stop offset="1" stop-color="#fff"/>
    </linearGradient>
    <linearGradient id="paint15_linear" x1="63.316" x2="-8.086" y1="127.867" y2="-53.937" gradientUnits="userSpaceOnUse">
      <stop stop-color="#97C3F9"/>
      <stop offset="1" stop-color="#93C1F9"/>
    </linearGradient>
    <linearGradient id="paint16_linear" x1="89.52" x2="18.119" y1="117.575" y2="-64.229" gradientUnits="userSpaceOnUse">
      <stop/>
      <stop offset="1" stop-color="#fff"/>
    </linearGradient>
    <linearGradient id="paint17_linear" x1="89.52" x2="18.119" y1="117.575" y2="-64.229" gradientUnits="userSpaceOnUse">
      <stop stop-color="#97C3F9"/>
      <stop offset="1" stop-color="#93C1F9"/>
    </linearGradient>
    <linearGradient id="paint18_linear" x1="28.169" x2="-43.233" y1="141.67" y2="-40.134" gradientUnits="userSpaceOnUse">
      <stop/>
      <stop offset="1" stop-color="#fff"/>
    </linearGradient>
    <linearGradient id="paint19_linear" x1="28.169" x2="-43.233" y1="141.67" y2="-40.134" gradientUnits="userSpaceOnUse">
      <stop stop-color="#97C3F9"/>
      <stop offset="1" stop-color="#93C1F9"/>
    </linearGradient>
    <linearGradient id="paint20_linear" x1="54.373" x2="-17.028" y1="131.379" y2="-50.425" gradientUnits="userSpaceOnUse">
      <stop/>
      <stop offset="1" stop-color="#fff"/>
    </linearGradient>
    <linearGradient id="paint21_linear" x1="54.373" x2="-17.028" y1="131.379" y2="-50.425" gradientUnits="userSpaceOnUse">
      <stop stop-color="#97C3F9"/>
      <stop offset="1" stop-color="#93C1F9"/>
    </linearGradient>
    <linearGradient id="paint22_linear" x1="80.578" x2="9.176" y1="121.087" y2="-60.717" gradientUnits="userSpaceOnUse">
      <stop/>
      <stop offset="1" stop-color="#fff"/>
    </linearGradient>
    <linearGradient id="paint23_linear" x1="80.578" x2="9.176" y1="121.087" y2="-60.717" gradientUnits="userSpaceOnUse">
      <stop stop-color="#97C3F9"/>
      <stop offset="1" stop-color="#93C1F9"/>
    </linearGradient>
    <linearGradient id="paint24_linear" x1="19.227" x2="-52.175" y1="145.182" y2="-36.622" gradientUnits="userSpaceOnUse">
      <stop/>
      <stop offset="1" stop-color="#fff"/>
    </linearGradient>
    <linearGradient id="paint25_linear" x1="19.227" x2="-52.175" y1="145.182" y2="-36.622" gradientUnits="userSpaceOnUse">
      <stop stop-color="#97C3F9"/>
      <stop offset="1" stop-color="#93C1F9"/>
    </linearGradient>
    <linearGradient id="paint26_linear" x1="45.431" x2="-25.971" y1="134.89" y2="-46.913" gradientUnits="userSpaceOnUse">
      <stop/>
      <stop offset="1" stop-color="#fff"/>
    </linearGradient>
    <linearGradient id="paint27_linear" x1="45.431" x2="-25.971" y1="134.89" y2="-46.913" gradientUnits="userSpaceOnUse">
      <stop stop-color="#97C3F9"/>
      <stop offset="1" stop-color="#93C1F9"/>
    </linearGradient>
    <linearGradient id="paint28_linear" x1="71.635" x2=".234" y1="124.599" y2="-57.205" gradientUnits="userSpaceOnUse">
      <stop/>
      <stop offset="1" stop-color="#fff"/>
    </linearGradient>
    <linearGradient id="paint29_linear" x1="71.635" x2=".234" y1="124.599" y2="-57.205" gradientUnits="userSpaceOnUse">
      <stop stop-color="#97C3F9"/>
      <stop offset="1" stop-color="#93C1F9"/>
    </linearGradient>
  </defs>
</svg>
